<?xml version="1.0" encoding="iso-8859-1"?>
<!-- Generator: Adobe Illustrator 19.0.0, SVG Export Plug-In . SVG Version: 6.00 Build 0)  -->
<svg version="1.1" id="Layer_1" xmlns="http://www.w3.org/2000/svg" xmlns:xlink="http://www.w3.org/1999/xlink" x="0px" y="0px"
	 viewBox="0 0 512 512" style="enable-background:new 0 0 512 512;" xml:space="preserve">
<g>
	<rect x="441.061" y="193.84" style="fill:#2D527C;" width="42.511" height="30.21"/>
	<rect x="28.431" y="193.84" style="fill:#2D527C;" width="39.489" height="30.21"/>
</g>
<path style="fill:#CEE8FA;" d="M155.797,119.638l-36.318-18.766c-1.023-0.529-2.237-0.529-3.26,0l-36.318,18.766
	c-2.364,1.222-5.182-0.494-5.182-3.156v-80.25c0-7.501,6.09-13.577,13.59-13.558l69.128,0.16c1.958,0.005,3.544,1.594,3.544,3.552
	v90.096C160.979,119.142,158.161,120.858,155.797,119.638z"/>
<g>
	<path style="fill:#2D527C;" d="M157.425,135.145c-2.959,0-5.92-0.722-8.563-2.086l-31.014-16.025l-31.014,16.024
		c-2.642,1.364-5.602,2.086-8.561,2.086c-4.851,0-9.451-1.857-12.954-5.229c-3.627-3.493-5.707-8.389-5.707-13.435V36.232
		c0-15.806,12.859-28.665,28.665-28.665l69.196,0.16c10.264,0.024,18.615,8.393,18.615,18.659v90.096
		C176.085,126.773,167.715,135.145,157.425,135.145z M117.848,85.369c2.965,0,5.925,0.719,8.561,2.079l19.464,10.057v-59.59
		l-56.047-0.13v59.721l19.458-10.054C111.923,86.088,114.883,85.369,117.848,85.369z"/>
	<path style="fill:#2D527C;" d="M444.364,402.339H67.638c-8.344,0-15.107-6.763-15.107-15.107V53.087
		C52.531,23.815,76.345,0,105.616,0h300.769c29.271,0,53.086,23.815,53.086,53.087v35.92c0,8.344-6.763,15.107-15.107,15.107
		s-15.107-6.763-15.107-15.107v-35.92c0-12.613-10.261-22.873-22.872-22.873H105.616c-12.611,0-22.872,10.261-22.872,22.873v319.038
		h346.513V165.359c0-8.344,6.763-15.107,15.107-15.107s15.107,6.763,15.107,15.107v221.874
		C459.471,395.576,452.708,402.339,444.364,402.339z"/>
</g>
<path style="fill:#CEE8FA;" d="M67.787,496.893h376.428c24.957,0,45.188-20.231,45.188-45.188v-231.4
	c0-9.927-11.027-15.883-19.329-10.44L266.7,343.18c-6.497,4.259-14.901,4.259-21.399,0L41.929,209.864
	c-8.303-5.443-19.329,0.514-19.329,10.44v231.4C22.599,476.662,42.831,496.893,67.787,496.893z"/>
<g>
	<path style="fill:#2D527C;" d="M444.215,512H67.787c-33.247,0-60.295-27.047-60.295-60.295v-231.4
		c0-15.226,12.392-27.612,27.624-27.612c5.346,0,10.566,1.57,15.093,4.537l203.374,133.317c0.909,0.597,1.817,0.722,2.417,0.722
		c0.6,0,1.508-0.125,2.417-0.722L461.792,197.23c4.528-2.967,9.747-4.537,15.093-4.537c15.232,0,27.624,12.386,27.624,27.612v231.4
		C504.509,484.953,477.462,512,444.215,512z M37.706,225.159v226.546c0,16.586,13.495,30.081,30.081,30.081h376.428
		c16.586,0,30.081-13.495,30.081-30.081V225.159L274.983,355.814c-5.656,3.707-12.218,5.667-18.982,5.667
		c-6.763,0-13.326-1.959-18.982-5.667L37.706,225.159z"/>
	<path style="fill:#2D527C;" d="M301.322,240.893h-90.641c-8.344,0-15.107-6.763-15.107-15.107s6.763-15.107,15.107-15.107h90.641
		c8.344,0,15.107,6.763,15.107,15.107S309.665,240.893,301.322,240.893z"/>
	<path style="fill:#2D527C;" d="M301.322,165.359h-90.641c-8.344,0-15.107-6.763-15.107-15.107s6.763-15.107,15.107-15.107h90.641
		c8.344,0,15.107,6.763,15.107,15.107C316.429,158.595,309.665,165.359,301.322,165.359z"/>
</g>
<g>
</g>
<g>
</g>
<g>
</g>
<g>
</g>
<g>
</g>
<g>
</g>
<g>
</g>
<g>
</g>
<g>
</g>
<g>
</g>
<g>
</g>
<g>
</g>
<g>
</g>
<g>
</g>
<g>
</g>
</svg>
